<svg width="523" height="281" viewBox="0 0 523 281" fill="none" xmlns="http://www.w3.org/2000/svg">
<g clip-path="url(#clip0)">
<path opacity="0.1" d="M522.025 180.361C522.031 187.994 520.979 195.592 518.899 202.938C516.889 210.02 513.931 216.8 510.106 223.094C510.106 245.9 494.673 265.609 472.273 274.986C462.913 278.865 452.872 280.846 442.736 280.813H99.0981C80.7314 280.813 63.7108 275.87 49.7521 267.448C45.7572 265.049 41.9676 262.326 38.4218 259.305C22.907 246.004 13.2879 227.624 13.2879 207.322C4.58056 193.947 -0.0364795 178.333 8.96907e-07 162.385C8.96907e-07 128.992 19.7995 100.279 48.1641 87.6015C51.9306 85.9189 55.8225 84.531 59.8047 83.4502C61.2132 83.0678 62.6369 82.7249 64.0758 82.4214C67.9117 81.6066 71.8023 81.0741 75.7164 80.8282C77.131 80.7402 78.5532 80.6902 79.983 80.678H80.7679C82.3467 80.678 83.9119 80.7327 85.4679 80.8237L85.979 79.9588C86.6057 78.9149 87.2475 77.8816 87.9046 76.859C89.0911 74.9957 90.3353 73.1597 91.6373 71.3511C93.0002 69.4423 94.4223 67.5639 95.9038 65.7158L96.2826 65.2606C97.1222 64.2167 97.9801 63.1849 98.8562 62.1653C101.594 58.982 104.484 55.8943 107.526 52.9021C140.431 20.7291 191.981 0.0177536 249.933 0.0177536C295.026 0.0177536 336.245 12.5583 367.818 33.2787C379.779 26.5267 393.29 22.9838 407.034 22.9959C451.634 22.9959 487.801 59.5798 487.801 104.708C487.795 107.563 487.642 110.416 487.345 113.256C498.096 120.848 506.859 130.908 512.895 142.587C518.93 154.266 522.062 167.221 522.025 180.361Z" fill="#EF7269"/>
<path opacity="0.2" d="M107.535 52.8844V62.1476H98.8653C101.582 58.9673 104.472 55.8795 107.535 52.8844Z" fill="#EF7269"/>
<path opacity="0.2" d="M123.447 50.5356H111.806V62.1476H123.447V50.5356Z" fill="#EF7269"/>
<path opacity="0.2" d="M139.354 50.5356H127.714V62.1476H139.354V50.5356Z" fill="#EF7269"/>
<path opacity="0.2" d="M155.266 50.5356H143.625V62.1476H155.266V50.5356Z" fill="#EF7269"/>
<path opacity="0.2" d="M171.173 50.5356H159.533V62.1476H171.173V50.5356Z" fill="#EF7269"/>
<path opacity="0.2" d="M187.085 50.5356H175.444V62.1476H187.085V50.5356Z" fill="#EF7269"/>
<path d="M202.997 50.5356H191.356V62.1476H202.997V50.5356Z" fill="#EF7269"/>
<path opacity="0.2" d="M218.904 50.5356H207.263V62.1476H218.904V50.5356Z" fill="#EF7269"/>
<path opacity="0.2" d="M234.815 50.5356H223.175V62.1476H234.815V50.5356Z" fill="#EF7269"/>
<path opacity="0.2" d="M250.723 50.5356H239.082V62.1476H250.723V50.5356Z" fill="#EF7269"/>
<path d="M266.634 50.5356H254.994V62.1476H266.634V50.5356Z" fill="#EF7269"/>
<path opacity="0.2" d="M282.546 50.5356H270.905V62.1476H282.546V50.5356Z" fill="#EF7269"/>
<path opacity="0.2" d="M298.453 50.5356H286.813V62.1476H298.453V50.5356Z" fill="#EF7269"/>
<path opacity="0.2" d="M314.365 50.5356H302.724V62.1476H314.365V50.5356Z" fill="#EF7269"/>
<path opacity="0.2" d="M330.277 50.5356H318.636V62.1476H330.277V50.5356Z" fill="#EF7269"/>
<path opacity="0.2" d="M346.184 50.5356H334.543V62.1476H346.184V50.5356Z" fill="#EF7269"/>
<path opacity="0.2" d="M362.096 50.5356H350.455V62.1476H362.096V50.5356Z" fill="#EF7269"/>
<path d="M378.003 50.5356H366.362V62.1476H378.003V50.5356Z" fill="#EF7269"/>
<path d="M393.914 50.5356H382.274V62.1476H393.914V50.5356Z" fill="#EF7269"/>
<path opacity="0.2" d="M409.826 50.5356H398.186V62.1476H409.826V50.5356Z" fill="#EF7269"/>
<path opacity="0.2" d="M425.733 50.5356H414.093V62.1476H425.733V50.5356Z" fill="#EF7269"/>
<path d="M441.645 50.5356H430.004V62.1476H441.645V50.5356Z" fill="#EF7269"/>
<path d="M457.552 50.5356H445.912V62.1476H457.552V50.5356Z" fill="#EF7269"/>
<path d="M91.6282 71.347V76.8549H87.8955C89.0819 74.9795 90.3262 73.1435 91.6282 71.347Z" fill="#EF7269"/>
<path opacity="0.2" d="M107.535 65.2429H95.8947V76.8549H107.535V65.2429Z" fill="#EF7269"/>
<path d="M123.447 65.2429H111.806V76.8549H123.447V65.2429Z" fill="#EF7269"/>
<path opacity="0.2" d="M139.354 65.2429H127.714V76.8549H139.354V65.2429Z" fill="#EF7269"/>
<path opacity="0.7" d="M155.266 65.2429H143.625V76.8549H155.266V65.2429Z" fill="#EF7269"/>
<path opacity="0.2" d="M171.173 65.2429H159.533V76.8549H171.173V65.2429Z" fill="#EF7269"/>
<path opacity="0.4" d="M187.085 65.2429H175.444V76.8549H187.085V65.2429Z" fill="#EF7269"/>
<path d="M202.997 65.2429H191.356V76.8549H202.997V65.2429Z" fill="#EF7269"/>
<path opacity="0.4" d="M218.904 65.2429H207.263V76.8549H218.904V65.2429Z" fill="#EF7269"/>
<path opacity="0.2" d="M234.815 65.2429H223.175V76.8549H234.815V65.2429Z" fill="#EF7269"/>
<path opacity="0.4" d="M250.723 65.2429H239.082V76.8549H250.723V65.2429Z" fill="#EF7269"/>
<path d="M266.634 65.2429H254.994V76.8549H266.634V65.2429Z" fill="#EF7269"/>
<path opacity="0.4" d="M282.546 65.2429H270.905V76.8549H282.546V65.2429Z" fill="#EF7269"/>
<path opacity="0.4" d="M298.453 65.2429H286.813V76.8549H298.453V65.2429Z" fill="#EF7269"/>
<path opacity="0.2" d="M314.365 65.2429H302.724V76.8549H314.365V65.2429Z" fill="#EF7269"/>
<path opacity="0.4" d="M330.277 65.2429H318.636V76.8549H330.277V65.2429Z" fill="#EF7269"/>
<path opacity="0.4" d="M346.184 65.2429H334.543V76.8549H346.184V65.2429Z" fill="#EF7269"/>
<path opacity="0.2" d="M362.096 65.2429H350.455V76.8549H362.096V65.2429Z" fill="#EF7269"/>
<path opacity="0.2" d="M378.003 65.2429H366.362V76.8549H378.003V65.2429Z" fill="#EF7269"/>
<path opacity="0.4" d="M393.914 65.2429H382.274V76.8549H393.914V65.2429Z" fill="#EF7269"/>
<path opacity="0.2" d="M409.826 65.2429H398.186V76.8549H409.826V65.2429Z" fill="#EF7269"/>
<path d="M425.733 65.2429H414.093V76.8549H425.733V65.2429Z" fill="#EF7269"/>
<path d="M441.645 65.2429H430.004V76.8549H441.645V65.2429Z" fill="#EF7269"/>
<path d="M457.552 65.2429H445.912V76.8549H457.552V65.2429Z" fill="#EF7269"/>
<path opacity="0.2" d="M59.8047 83.4506V91.5667H48.1641V87.602C51.9306 85.9194 55.8226 84.5314 59.8047 83.4506Z" fill="#EF7269"/>
<path opacity="0.2" d="M75.7165 80.8287V91.5667H64.0759V82.4219L75.7165 80.8287Z" fill="#EF7269"/>
<path d="M91.6236 79.9547H79.983V91.5667H91.6236V79.9547Z" fill="#EF7269"/>
<path opacity="0.7" d="M107.535 79.9547H95.8947V91.5667H107.535V79.9547Z" fill="#EF7269"/>
<path d="M123.447 79.9547H111.806V91.5667H123.447V79.9547Z" fill="#EF7269"/>
<path opacity="0.7" d="M139.354 79.9547H127.714V91.5667H139.354V79.9547Z" fill="#EF7269"/>
<path opacity="0.7" d="M155.266 79.9547H143.625V91.5667H155.266V79.9547Z" fill="#EF7269"/>
<path opacity="0.2" d="M171.173 79.9547H159.533V91.5667H171.173V79.9547Z" fill="#EF7269"/>
<path opacity="0.4" d="M187.085 79.9547H175.444V91.5667H187.085V79.9547Z" fill="#EF7269"/>
<path opacity="0.4" d="M202.997 79.9547H191.356V91.5667H202.997V79.9547Z" fill="#EF7269"/>
<path d="M218.904 79.9547H207.263V91.5667H218.904V79.9547Z" fill="#EF7269"/>
<path opacity="0.2" d="M234.815 79.9547H223.175V91.5667H234.815V79.9547Z" fill="#EF7269"/>
<path opacity="0.4" d="M250.723 79.9547H239.082V91.5667H250.723V79.9547Z" fill="#EF7269"/>
<path d="M266.634 79.9547H254.994V91.5667H266.634V79.9547Z" fill="#EF7269"/>
<path opacity="0.2" d="M282.546 79.9547H270.905V91.5667H282.546V79.9547Z" fill="#EF7269"/>
<path opacity="0.4" d="M298.453 79.9547H286.813V91.5667H298.453V79.9547Z" fill="#EF7269"/>
<path opacity="0.2" d="M314.365 79.9547H302.724V91.5667H314.365V79.9547Z" fill="#EF7269"/>
<path d="M330.277 79.9547H318.636V91.5667H330.277V79.9547Z" fill="#EF7269"/>
<path opacity="0.2" d="M346.184 79.9547H334.543V91.5667H346.184V79.9547Z" fill="#EF7269"/>
<path opacity="0.7" d="M362.096 79.9547H350.455V91.5667H362.096V79.9547Z" fill="#EF7269"/>
<path opacity="0.7" d="M378.003 79.9547H366.362V91.5667H378.003V79.9547Z" fill="#EF7269"/>
<path opacity="0.4" d="M393.914 79.9547H382.274V91.5667H393.914V79.9547Z" fill="#EF7269"/>
<path opacity="0.2" d="M409.826 79.9547H398.186V91.5667H409.826V79.9547Z" fill="#EF7269"/>
<path d="M425.733 79.9547H414.093V91.5667H425.733V79.9547Z" fill="#EF7269"/>
<path d="M441.645 79.9547H430.004V91.5667H441.645V79.9547Z" fill="#EF7269"/>
<path d="M457.552 79.9547H445.912V91.5667H457.552V79.9547Z" fill="#EF7269"/>
<path opacity="0.2" d="M59.8047 94.662H48.1641V106.274H59.8047V94.662Z" fill="#EF7269"/>
<path opacity="0.2" d="M75.7165 94.662H64.0759V106.274H75.7165V94.662Z" fill="#EF7269"/>
<path opacity="0.2" d="M91.6236 94.662H79.983V106.274H91.6236V94.662Z" fill="#EF7269"/>
<path opacity="0.2" d="M107.535 94.662H95.8947V106.274H107.535V94.662Z" fill="#EF7269"/>
<path d="M123.447 94.662H111.806V106.274H123.447V94.662Z" fill="#EF7269"/>
<path opacity="0.7" d="M139.354 94.662H127.714V106.274H139.354V94.662Z" fill="#EF7269"/>
<path opacity="0.7" d="M155.266 94.662H143.625V106.274H155.266V94.662Z" fill="#EF7269"/>
<path opacity="0.2" d="M171.173 94.662H159.533V106.274H171.173V94.662Z" fill="#EF7269"/>
<path opacity="0.2" d="M187.085 94.662H175.444V106.274H187.085V94.662Z" fill="#EF7269"/>
<path opacity="0.4" d="M202.997 94.662H191.356V106.274H202.997V94.662Z" fill="#EF7269"/>
<path opacity="0.4" d="M218.904 94.662H207.263V106.274H218.904V94.662Z" fill="#EF7269"/>
<path d="M234.815 94.662H223.175V106.274H234.815V94.662Z" fill="#EF7269"/>
<path opacity="0.2" d="M250.723 94.662H239.082V106.274H250.723V94.662Z" fill="#EF7269"/>
<path opacity="0.4" d="M266.634 94.662H254.994V106.274H266.634V94.662Z" fill="#EF7269"/>
<path opacity="0.4" d="M282.546 94.662H270.905V106.274H282.546V94.662Z" fill="#EF7269"/>
<path opacity="0.4" d="M298.453 94.662H286.813V106.274H298.453V94.662Z" fill="#EF7269"/>
<path opacity="0.4" d="M314.365 94.662H302.724V106.274H314.365V94.662Z" fill="#EF7269"/>
<path opacity="0.2" d="M330.277 94.662H318.636V106.274H330.277V94.662Z" fill="#EF7269"/>
<path opacity="0.2" d="M346.184 94.662H334.543V106.274H346.184V94.662Z" fill="#EF7269"/>
<path opacity="0.2" d="M362.096 94.662H350.455V106.274H362.096V94.662Z" fill="#EF7269"/>
<path opacity="0.2" d="M378.003 94.662H366.362V106.274H378.003V94.662Z" fill="#EF7269"/>
<path opacity="0.7" d="M393.914 94.662H382.274V106.274H393.914V94.662Z" fill="#EF7269"/>
<path opacity="0.7" d="M409.826 94.662H398.186V106.274H409.826V94.662Z" fill="#EF7269"/>
<path opacity="0.4" d="M425.733 94.662H414.093V106.274H425.733V94.662Z" fill="#EF7269"/>
<path opacity="0.2" d="M441.645 94.662H430.004V106.274H441.645V94.662Z" fill="#EF7269"/>
<path d="M457.552 94.662H445.912V106.274H457.552V94.662Z" fill="#EF7269"/>
<path opacity="0.2" d="M59.8047 109.374H48.1641V120.986H59.8047V109.374Z" fill="#EF7269"/>
<path opacity="0.2" d="M75.7165 109.374H64.0759V120.986H75.7165V109.374Z" fill="#EF7269"/>
<path opacity="0.4" d="M91.6236 109.374H79.983V120.986H91.6236V109.374Z" fill="#EF7269"/>
<path opacity="0.2" d="M107.535 109.374H95.8947V120.986H107.535V109.374Z" fill="#EF7269"/>
<path opacity="0.2" d="M123.447 109.374H111.806V120.986H123.447V109.374Z" fill="#EF7269"/>
<path opacity="0.7" d="M139.354 109.374H127.714V120.986H139.354V109.374Z" fill="#EF7269"/>
<path opacity="0.7" d="M155.266 109.374H143.625V120.986H155.266V109.374Z" fill="#EF7269"/>
<path opacity="0.2" d="M171.173 109.374H159.533V120.986H171.173V109.374Z" fill="#EF7269"/>
<path opacity="0.2" d="M187.085 109.374H175.444V120.986H187.085V109.374Z" fill="#EF7269"/>
<path opacity="0.4" d="M202.997 109.374H191.356V120.986H202.997V109.374Z" fill="#EF7269"/>
<path d="M218.904 109.374H207.263V120.986H218.904V109.374Z" fill="#EF7269"/>
<path opacity="0.2" d="M234.815 109.374H223.175V120.986H234.815V109.374Z" fill="#EF7269"/>
<path d="M250.723 109.374H239.082V120.986H250.723V109.374Z" fill="#EF7269"/>
<path d="M266.634 109.374H254.994V120.986H266.634V109.374Z" fill="#EF7269"/>
<path d="M282.546 109.374H270.905V120.986H282.546V109.374Z" fill="#EF7269"/>
<path opacity="0.2" d="M298.453 109.374H286.813V120.986H298.453V109.374Z" fill="#EF7269"/>
<path d="M314.365 109.374H302.724V120.986H314.365V109.374Z" fill="#EF7269"/>
<path opacity="0.2" d="M330.277 109.374H318.636V120.986H330.277V109.374Z" fill="#EF7269"/>
<path opacity="0.2" d="M346.184 109.374H334.543V120.986H346.184V109.374Z" fill="#EF7269"/>
<path opacity="0.2" d="M362.096 109.374H350.455V120.986H362.096V109.374Z" fill="#EF7269"/>
<path opacity="0.2" d="M378.003 109.374H366.362V120.986H378.003V109.374Z" fill="#EF7269"/>
<path opacity="0.2" d="M393.914 109.374H382.274V120.986H393.914V109.374Z" fill="#EF7269"/>
<path opacity="0.7" d="M409.826 109.374H398.186V120.986H409.826V109.374Z" fill="#EF7269"/>
<path opacity="0.2" d="M425.733 109.374H414.093V120.986H425.733V109.374Z" fill="#EF7269"/>
<path opacity="0.2" d="M441.645 109.374H430.004V120.986H441.645V109.374Z" fill="#EF7269"/>
<path d="M457.552 109.374H445.912V120.986H457.552V109.374Z" fill="#EF7269"/>
<path opacity="0.2" d="M59.8047 124.081H48.1641V135.693H59.8047V124.081Z" fill="#EF7269"/>
<path opacity="0.2" d="M75.7165 124.081H64.0759V135.693H75.7165V124.081Z" fill="#EF7269"/>
<path opacity="0.2" d="M91.6236 124.081H79.983V135.693H91.6236V124.081Z" fill="#EF7269"/>
<path opacity="0.4" d="M107.535 124.081H95.8947V135.693H107.535V124.081Z" fill="#EF7269"/>
<path opacity="0.2" d="M123.447 124.081H111.806V135.693H123.447V124.081Z" fill="#EF7269"/>
<path opacity="0.2" d="M139.354 124.081H127.714V135.693H139.354V124.081Z" fill="#EF7269"/>
<path opacity="0.7" d="M155.266 124.081H143.625V135.693H155.266V124.081Z" fill="#EF7269"/>
<path opacity="0.2" d="M171.173 124.081H159.533V135.693H171.173V124.081Z" fill="#EF7269"/>
<path opacity="0.2" d="M187.085 124.081H175.444V135.693H187.085V124.081Z" fill="#EF7269"/>
<path opacity="0.2" d="M202.997 124.081H191.356V135.693H202.997V124.081Z" fill="#EF7269"/>
<path d="M218.904 124.081H207.263V135.693H218.904V124.081Z" fill="#EF7269"/>
<path opacity="0.2" d="M234.815 124.081H223.175V135.693H234.815V124.081Z" fill="#EF7269"/>
<path d="M250.723 124.081H239.082V135.693H250.723V124.081Z" fill="#EF7269"/>
<path d="M266.634 124.081H254.994V135.693H266.634V124.081Z" fill="#EF7269"/>
<path opacity="0.2" d="M282.546 124.081H270.905V135.693H282.546V124.081Z" fill="#EF7269"/>
<path opacity="0.2" d="M298.453 124.081H286.813V135.693H298.453V124.081Z" fill="#EF7269"/>
<path opacity="0.2" d="M314.365 124.081H302.724V135.693H314.365V124.081Z" fill="#EF7269"/>
<path opacity="0.2" d="M330.277 124.081H318.636V135.693H330.277V124.081Z" fill="#EF7269"/>
<path opacity="0.2" d="M346.184 124.081H334.543V135.693H346.184V124.081Z" fill="#EF7269"/>
<path opacity="0.2" d="M362.096 124.081H350.455V135.693H362.096V124.081Z" fill="#EF7269"/>
<path opacity="0.2" d="M378.003 124.081H366.362V135.693H378.003V124.081Z" fill="#EF7269"/>
<path opacity="0.2" d="M393.914 124.081H382.274V135.693H393.914V124.081Z" fill="#EF7269"/>
<path opacity="0.2" d="M409.826 124.081H398.186V135.693H409.826V124.081Z" fill="#EF7269"/>
<path opacity="0.2" d="M425.733 124.081H414.093V135.693H425.733V124.081Z" fill="#EF7269"/>
<path opacity="0.4" d="M441.645 124.081H430.004V135.693H441.645V124.081Z" fill="#EF7269"/>
<path d="M457.552 124.081H445.912V135.693H457.552V124.081Z" fill="#EF7269"/>
<path opacity="0.7" d="M59.8047 138.793H48.1641V150.405H59.8047V138.793Z" fill="#EF7269"/>
<path opacity="0.7" d="M75.7165 138.793H64.0759V150.405H75.7165V138.793Z" fill="#EF7269"/>
<path opacity="0.7" d="M91.6236 138.793H79.983V150.405H91.6236V138.793Z" fill="#EF7269"/>
<path opacity="0.7" d="M107.535 138.793H95.8947V150.405H107.535V138.793Z" fill="#EF7269"/>
<path opacity="0.7" d="M123.447 138.793H111.806V150.405H123.447V138.793Z" fill="#EF7269"/>
<path opacity="0.2" d="M139.354 138.793H127.714V150.405H139.354V138.793Z" fill="#EF7269"/>
<path opacity="0.2" d="M155.266 138.793H143.625V150.405H155.266V138.793Z" fill="#EF7269"/>
<path opacity="0.2" d="M171.173 138.793H159.533V150.405H171.173V138.793Z" fill="#EF7269"/>
<path opacity="0.2" d="M187.085 138.793H175.444V150.405H187.085V138.793Z" fill="#EF7269"/>
<path opacity="0.2" d="M202.997 138.793H191.356V150.405H202.997V138.793Z" fill="#EF7269"/>
<path opacity="0.2" d="M218.904 138.793H207.263V150.405H218.904V138.793Z" fill="#EF7269"/>
<path d="M234.815 138.793H223.175V150.405H234.815V138.793Z" fill="#EF7269"/>
<path opacity="0.2" d="M250.723 138.793H239.082V150.405H250.723V138.793Z" fill="#EF7269"/>
<path opacity="0.2" d="M266.634 138.793H254.994V150.405H266.634V138.793Z" fill="#EF7269"/>
<path opacity="0.2" d="M282.546 138.793H270.905V150.405H282.546V138.793Z" fill="#EF7269"/>
<path d="M298.453 138.793H286.813V150.405H298.453V138.793Z" fill="#EF7269"/>
<path opacity="0.2" d="M314.365 138.793H302.724V150.405H314.365V138.793Z" fill="#EF7269"/>
<path opacity="0.2" d="M330.277 138.793H318.636V150.405H330.277V138.793Z" fill="#EF7269"/>
<path opacity="0.2" d="M346.184 138.793H334.543V150.405H346.184V138.793Z" fill="#EF7269"/>
<path opacity="0.2" d="M362.096 138.793H350.455V150.405H362.096V138.793Z" fill="#EF7269"/>
<path opacity="0.2" d="M378.003 138.793H366.362V150.405H378.003V138.793Z" fill="#EF7269"/>
<path opacity="0.2" d="M393.914 138.793H382.274V150.405H393.914V138.793Z" fill="#EF7269"/>
<path opacity="0.2" d="M409.826 138.793H398.186V150.405H409.826V138.793Z" fill="#EF7269"/>
<path opacity="0.2" d="M425.733 138.793H414.093V150.405H425.733V138.793Z" fill="#EF7269"/>
<path opacity="0.2" d="M441.645 138.793H430.004V150.405H441.645V138.793Z" fill="#EF7269"/>
<path d="M457.552 138.793H445.912V150.405H457.552V138.793Z" fill="#EF7269"/>
<path d="M335.173 181.513C343.961 181.513 351.085 174.407 351.085 165.64C351.085 156.874 343.961 149.768 335.173 149.768C326.385 149.768 319.261 156.874 319.261 165.64C319.261 174.407 326.385 181.513 335.173 181.513Z" fill="#767D9F"/>
<path d="M334.347 145.448C335.935 152.361 337.283 159.325 338.39 166.341C338.723 168.426 339.02 170.625 338.262 172.596C337.628 174.239 336.337 175.523 335.324 176.961C334.311 178.399 333.544 180.243 334.16 181.891C334.776 183.539 336.574 184.44 338.29 184.904C343.2 186.224 348.433 185.264 353.321 183.834C355.533 183.266 357.655 182.39 359.622 181.231C361.694 179.92 363.392 178.099 364.952 176.224C372.075 167.607 376.739 157.265 381.129 146.987C378.308 147.243 375.467 146.825 372.839 145.77C370.212 144.714 367.875 143.049 366.02 140.914C364.222 138.807 362.903 135.871 363.916 133.294C360.946 134.919 357.418 135.029 354.22 136.139C352.236 136.895 350.326 137.832 348.516 138.939C346.331 140.198 344.159 141.482 341.999 142.79C339.531 144.274 337.217 145.594 334.347 145.448Z" fill="#AE6E79"/>
<path d="M367.626 157.365C364.838 162.777 361.21 167.98 356.031 171.203C350.852 174.426 343.879 175.3 338.691 172.113C336.136 170.556 334.201 168.189 331.97 166.196C329.738 164.202 326.95 162.495 323.952 162.754C320.648 163.041 318.061 165.613 315.848 168.076C312.49 171.817 309.245 175.718 306.868 180.147C302.305 188.659 301.223 198.61 301.424 208.26C301.625 217.91 303.026 227.51 303.057 237.16C303.103 249.032 301.086 260.808 299.046 272.502C317.801 270.198 336.578 275.233 355.374 277.14C367.403 278.374 379.522 278.346 391.615 278.314C393.741 278.314 396.004 278.26 397.775 277.085C398.857 276.298 399.732 275.261 400.326 274.063C401.996 270.99 402.667 267.485 403.132 264.021C404.314 255.272 404.35 246.414 404.382 237.584C404.464 216.19 404.542 194.718 401.818 173.492C401.147 168.271 400.289 163.023 398.281 158.139C396.274 153.255 392.997 148.762 388.416 146.144C385.473 144.46 378.651 141.529 375.183 143.227C371.29 145.12 369.492 153.742 367.626 157.365Z" fill="#767D9F"/>
<path d="M369.013 217.778C368.306 204.578 365.427 190.489 371.555 178.773C373.061 175.896 367.658 172.304 369.328 169.519C371.366 166.122 372.912 162.455 373.919 158.626C374.266 157.31 374.544 155.917 374.215 154.597C373.608 152.189 371.222 150.756 369.196 149.29C366.96 147.669 365.81 142.73 365.089 140.058C364.368 137.386 370.825 140.605 373.421 139.653C377.026 138.338 381.608 139.166 385.203 140.5C387.211 141.237 389.392 141.301 391.533 141.356C395.69 141.465 399.86 141.57 403.985 141.06C405.838 140.828 407.695 140.477 409.557 140.582C414.307 140.85 418.437 144.091 421.248 147.924C424.059 151.757 425.847 156.222 428.152 160.374C430.073 163.833 432.364 167.101 434.002 170.702C435.453 173.888 436.37 177.311 437.278 180.716L439.619 189.451C440.029 190.701 440.223 192.011 440.194 193.325C440.075 194.723 439.455 196.024 438.825 197.267C436.444 201.873 433.589 206.219 430.306 210.236C425.382 216.258 419.404 221.688 416.479 228.899C415.338 231.707 414.704 234.693 414.125 237.67C411.788 249.577 410.128 261.605 409.151 273.699C403.819 271.237 398.23 269.373 392.486 268.141C389.623 267.53 386.729 267.074 383.816 266.775C381.265 266.511 377.975 267.012 375.548 266.32C371.487 265.168 371.039 258.318 370.423 254.731C369.438 249.018 369.241 243.205 369.205 237.433C369.159 230.87 369.365 224.319 369.013 217.778Z" fill="#4C4981"/>
<path d="M279.826 193.093C281.747 204.018 283.865 214.974 288.04 225.239C287.935 225.339 287.83 225.43 287.725 225.521C287.356 225.835 286.972 226.131 286.571 226.431C285.635 227.087 284.609 227.642 283.833 228.498C283.539 228.826 283.307 229.203 283.148 229.613C283.005 229.933 282.931 230.28 282.931 230.631C282.931 230.981 283.005 231.328 283.148 231.648C280.972 232.608 278.444 232.313 276.002 232.221C273.899 232.144 271.859 232.222 270.171 233.373C267.825 234.985 267.118 238.08 266.739 240.893C266.599 241.919 266.479 242.946 266.379 243.975C266.281 244.931 266.202 245.889 266.141 246.851C265.935 250.034 265.906 253.225 266.055 256.41C266.079 256.993 266.111 257.576 266.151 258.158C258.694 257.981 251.9 254.103 245.47 250.334C244.001 249.473 242.486 248.567 241.532 247.147C240.654 245.752 240.282 244.099 240.478 242.463C240.478 242.231 240.519 242.008 240.551 241.771C240.756 240.421 241.106 239.096 241.596 237.82C243.608 232.387 246.573 227.355 250.353 222.958C251.987 221.056 253.826 219.194 254.588 216.804C254.921 215.762 255.044 214.656 255.382 213.618C256.897 209.12 262.363 206.995 264.234 202.629C264.69 201.587 264.9 200.444 265.466 199.443C265.976 198.611 266.633 197.878 267.405 197.281C267.739 197.003 268.085 196.735 268.428 196.466C271.634 193.959 274.723 191.312 277.695 188.523C278.249 188.004 278.797 187.479 279.338 186.948C279.266 189.008 279.43 191.07 279.826 193.093Z" fill="#4C4981"/>
<path d="M325.809 160.783C325.152 161.475 324.44 162.126 323.742 162.773L323.555 162.941L322.816 163.624C321.474 164.779 320.313 166.128 319.371 167.625L319.293 167.752C316.966 171.908 317.828 177.025 318.476 181.745C319.28 187.627 319.642 193.561 319.558 199.498C319.439 207.691 318.472 215.83 318.454 224.014C318.454 225.872 318.495 227.724 318.577 229.581C318.709 232.599 318.937 235.613 319.211 238.626C319.508 241.931 319.864 245.231 320.197 248.531C320.461 251.085 320.712 253.634 320.922 256.183C321.027 257.503 321.128 258.818 321.21 260.138C321.306 261.686 321.383 263.238 321.429 264.786C321.461 265.769 321.479 266.748 321.479 267.731C321.479 268.291 321.479 268.846 321.479 269.402C321.479 270.467 321.45 271.529 321.392 272.588C321.331 273.951 321.239 275.316 321.114 276.685C320.972 278.173 320.721 279.798 319.672 280.845C319.608 280.909 319.54 280.968 319.471 281.027L317.993 280.845C307.801 279.628 297.511 279.445 287.283 280.299C287.506 278.76 287.712 277.226 287.912 275.683C288.004 274.955 288.095 274.222 288.182 273.489C288.282 272.652 288.378 271.814 288.469 270.977C288.574 270.066 288.67 269.156 288.761 268.245C288.998 265.9 289.207 263.552 289.386 261.204C289.651 257.778 289.852 254.345 289.989 250.907C290.056 249.265 290.107 247.622 290.144 245.977C290.195 243.938 290.22 241.897 290.217 239.855C290.217 237.87 290.2 235.883 290.167 233.892C290.167 233.237 290.139 232.581 290.084 231.93C290.045 231.344 289.964 230.761 289.843 230.187C289.504 228.862 289.046 227.57 288.474 226.327C288.373 226.09 288.277 225.872 288.182 225.621C288.127 225.498 288.077 225.371 288.026 225.248C290.655 222.913 292.526 219.786 294.324 216.708C297.239 211.751 300.224 206.576 300.712 200.85C301.2 195.123 298.348 188.691 292.863 186.943C291.371 186.488 289.792 186.361 288.255 186.092C286.803 185.837 283.778 185.259 282.099 184.221C281.186 185.156 280.274 186.074 279.361 186.975C279.416 185.6 279.753 184.251 280.351 183.011L280.999 183.042C280.946 182.897 280.922 182.742 280.926 182.587C280.926 182.1 281.264 181.549 281.985 180.939C284.134 179.119 287.515 178.713 288.871 176.251C289.436 175.227 289.532 174.007 289.989 172.933C291.298 169.869 295.058 168.74 297.322 166.291C299.585 163.842 300.151 160.374 301.981 157.643C303.347 155.648 305.243 154.072 307.456 153.091C307.639 153.004 307.826 152.918 308.013 152.84C311.8 151.224 316.3 150.856 320.224 150.865C321.748 150.865 325.7 150.91 327.635 151.68C327.948 151.791 328.236 151.967 328.479 152.194C330.541 154.434 327.333 159.163 325.809 160.783Z" fill="#4C4981"/>
<path d="M280.506 182.692C284.031 181.633 287.732 181.284 291.394 181.665C295.055 182.045 298.604 183.148 301.835 184.909C305.12 186.729 308.068 189.269 309.875 192.547C312.59 197.463 312.471 203.389 312.28 209.002C312.184 211.811 312.061 214.719 310.819 217.241C309.382 220.159 306.671 222.162 303.906 223.8C302.174 224.903 300.276 225.722 298.284 226.227C295.218 226.891 292.033 226.327 288.944 225.771C285.585 225.152 281.98 224.406 279.648 221.911C278.28 220.464 277.531 218.584 276.792 216.745C275.73 214.09 274.666 211.437 273.598 208.788C271.75 204.186 271.125 200.358 273.566 195.874C274.675 193.83 276.03 191.919 277.125 189.861C277.673 188.814 279.635 182.96 280.506 182.692Z" fill="#4C4981"/>
<path d="M472.287 261.381V274.991C462.926 278.87 452.885 280.851 442.749 280.818H319.686C319.622 280.882 319.553 280.941 319.485 281L318.006 280.818H99.0981C80.7314 280.818 63.7108 275.875 49.7521 267.453V246.674L155.033 234.552H155.115L216.426 239.732L232.292 241.098L240.533 241.794L257.59 243.237L266.365 243.979L279.142 245.062L280.94 245.213L290.148 245.991L302.642 247.015L320.21 248.499L349.497 250.98L370.099 252.723L403.931 255.587L410.365 256.128L411.058 256.187L411.661 256.237L420.157 256.957L429.484 257.749L430.566 257.84L472.287 261.381Z" fill="#504F60"/>
<path d="M348.625 260.88L216.686 238.417L211.571 264.222L272.051 271.445L290.673 273.772L341.899 263.707L348.625 260.88Z" fill="#9C9CA1"/>
<path d="M280.328 272.479L346.43 260.084C346.761 260.021 347.102 260.031 347.428 260.115C347.754 260.199 348.057 260.353 348.316 260.568C348.575 260.782 348.784 261.051 348.926 261.356C349.069 261.66 349.142 261.992 349.141 262.328C349.142 262.861 348.956 263.377 348.615 263.787C348.274 264.197 347.8 264.475 347.274 264.572L282.719 276.63L280.328 272.479Z" fill="#9C9CA1"/>
<path d="M309.003 233.501C311.061 233.309 313.147 232.986 314.999 232.076C317.281 230.942 319.056 228.99 321.169 227.551C325.814 224.365 332.029 223.937 337.354 225.767C342.679 227.597 347.124 231.516 350.236 236.195C352.303 239.313 353.855 243.292 352.394 246.733C351.893 247.785 351.262 248.77 350.514 249.665L346.709 254.626C345.986 255.669 345.116 256.603 344.126 257.398C342.702 258.432 340.932 258.855 339.189 259.11C334.557 259.783 329.843 259.401 325.175 259.711C317.158 260.243 309.327 262.82 301.292 262.733C296.674 262.683 292.115 261.754 287.602 260.826L267.629 256.729C264.152 256.019 260.223 254.981 258.585 251.836C257.85 250.42 257.713 248.781 257.627 247.188C257.389 242.8 257.627 237.921 260.675 234.757C263.541 231.789 268.072 230.851 271.494 228.657C275.683 225.967 277.066 226.837 281.483 228.858C290.1 232.751 299.582 234.35 309.003 233.501Z" fill="#AE6E79"/>
<path opacity="0.05" d="M309.003 233.501C311.061 233.309 313.147 232.986 314.999 232.076C317.281 230.942 319.056 228.99 321.169 227.551C325.814 224.365 332.029 223.937 337.354 225.767C342.679 227.597 347.124 231.516 350.236 236.195C352.303 239.313 353.855 243.292 352.394 246.733C351.893 247.785 351.262 248.77 350.514 249.665L346.709 254.626C345.986 255.669 345.116 256.603 344.126 257.398C342.702 258.432 340.932 258.855 339.189 259.11C334.557 259.783 329.843 259.401 325.175 259.711C317.158 260.243 309.327 262.82 301.292 262.733C296.674 262.683 292.115 261.754 287.602 260.826L267.629 256.729C264.152 256.019 260.223 254.981 258.585 251.836C257.85 250.42 257.713 248.781 257.627 247.188C257.389 242.8 257.627 237.921 260.675 234.757C263.541 231.789 268.072 230.851 271.494 228.657C275.683 225.967 277.066 226.837 281.483 228.858C290.1 232.751 299.582 234.35 309.003 233.501Z" fill="black"/>
<path d="M389.21 227.26C383.606 229.422 377.971 231.593 372.103 232.882C362.264 235.044 351.97 234.702 342.209 237.174C337.053 238.485 331.929 240.597 326.631 240.169C324.262 239.978 321.976 239.259 319.672 238.713C306.726 235.526 292.01 236.559 281.497 244.753C277.901 247.552 274.958 251.044 272.288 254.767C271.717 255.571 271.331 256.492 271.158 257.462C270.984 258.432 271.028 259.429 271.286 260.38C271.543 261.332 272.009 262.215 272.648 262.966C273.288 263.718 274.085 264.319 274.985 264.727C279.074 266.602 283.453 267.768 287.935 268.173C293.927 268.701 299.945 267.854 305.905 267.007C314.748 265.756 323.596 264.499 332.417 263.093C335.584 262.587 338.751 262.064 341.936 261.663C364.856 258.773 388.192 262.287 411.172 259.874C413.495 259.629 415.859 259.31 417.971 258.322C423.319 255.819 425.966 249.218 424.862 243.419C423.758 237.62 419.496 232.8 414.367 229.841C410.068 227.351 405.432 226.345 400.645 225.289C396.201 224.256 393.49 225.621 389.21 227.26Z" fill="#AE6E79"/>
<path opacity="0.1" d="M438.369 192.592C440.897 195.897 441.435 200.331 441.161 204.468C440.888 208.606 439.902 212.698 439.756 216.854C439.555 222.553 440.933 228.234 440.7 233.915C440.536 237.889 439.592 241.785 438.474 245.6C437.155 250.101 435.248 254.94 431.081 257.102C425.551 259.975 413.951 258.359 408.133 260.607C408.663 257.316 413.737 252.55 414.266 249.259C414.631 246.983 415.001 244.644 414.608 242.363C414.106 239.455 412.395 236.874 410.365 234.725C407.134 231.307 402.918 228.735 398.286 227.897C393.654 227.06 382.315 227.747 378.61 230.665C378.153 227.651 386.641 224.747 389.625 224.096C391.113 223.764 392.819 223.951 394.01 223.008C396.292 221.224 394.635 217.669 394.745 214.815C394.832 212.539 396.164 210.454 396.433 208.178C396.89 204.537 394.508 200.827 395.443 197.254C395.79 195.933 396.561 194.773 397.095 193.516C398.719 189.67 398.008 185.282 397.141 181.194C396.602 178.627 396.077 175.732 397.51 173.543C398.838 171.499 402.607 178.777 405.021 178.44C412.993 177.325 420.207 171.43 426.646 176.255C429.927 178.713 430.356 181.263 431.665 184.772C432.939 188.113 436.238 189.825 438.369 192.592Z" fill="black"/>
<path d="M439.738 192.592C442.266 195.897 442.804 200.331 442.53 204.468C442.257 208.606 441.271 212.698 441.125 216.854C440.924 222.553 442.302 228.234 442.069 233.915C441.905 237.889 440.961 241.785 439.843 245.6C438.524 250.101 436.616 254.94 432.45 257.102C426.92 259.975 415.32 258.359 409.502 260.607C410.032 257.316 415.106 252.55 415.635 249.259C416 246.983 416.37 244.644 415.977 242.363C415.475 239.455 413.764 236.874 411.734 234.725C408.503 231.307 404.287 228.735 399.655 227.897C395.023 227.06 383.684 227.747 379.979 230.665C379.522 227.651 388.01 224.747 390.994 224.096C392.482 223.764 394.188 223.951 395.379 223.008C397.661 221.224 396.004 217.669 396.114 214.815C396.201 212.539 397.533 210.454 397.802 208.178C398.259 204.537 395.877 200.827 396.812 197.254C397.159 195.933 397.93 194.773 398.464 193.516C400.088 189.67 399.377 185.282 398.51 181.194C397.971 178.627 397.446 175.732 398.879 173.543C400.207 171.499 402.803 170.725 405.217 170.383C413.3 169.293 421.489 171.401 428.033 176.255C431.314 178.713 431.743 181.263 433.053 184.772C434.308 188.113 437.607 189.825 439.738 192.592Z" fill="#4C4981"/>
<path d="M137.807 171.025L162.617 262.492C162.922 263.613 163.561 264.614 164.451 265.363C165.34 266.112 166.437 266.573 167.596 266.684L279.265 277.386C280.175 277.473 281.093 277.342 281.942 277.003C282.791 276.664 283.546 276.127 284.144 275.437C284.741 274.747 285.165 273.924 285.378 273.037C285.592 272.15 285.589 271.225 285.371 270.339L258.202 160.01C257.878 158.698 257.099 157.544 256.003 156.751C254.907 155.958 253.565 155.579 252.215 155.681L142.886 163.838C142.047 163.903 141.232 164.152 140.5 164.567C139.768 164.982 139.137 165.554 138.652 166.24C138.167 166.927 137.84 167.711 137.694 168.539C137.548 169.366 137.587 170.215 137.807 171.025Z" fill="#9C9CA1"/>
<path d="M359.171 188.873C365.95 188.873 371.445 183.32 371.445 176.469C371.445 169.619 365.95 164.065 359.171 164.065C352.391 164.065 346.896 169.619 346.896 176.469C346.896 183.32 352.391 188.873 359.171 188.873Z" fill="white"/>
<path d="M369.251 153.842C369.251 153.842 371.838 161.516 364.204 164.744L363.227 166.446L368.009 171.153C368.009 171.153 373.905 160.424 373.266 156.614C373.266 156.614 372.354 152.745 369.251 153.842Z" fill="white"/>
<path d="M360.581 188.873C367.118 188.873 372.417 183.587 372.417 177.066C372.417 170.544 367.118 165.258 360.581 165.258C354.043 165.258 348.744 170.544 348.744 177.066C348.744 183.587 354.043 188.873 360.581 188.873Z" fill="#EF7269"/>
<path d="M373.326 158.357L371.445 155.262L368.708 154.875C369.292 144.683 366.64 141.647 366.64 141.647L366.024 141.588L363.341 141.328L358.294 136.103V134.619C365.386 135.461 369.305 138.82 371.423 142.758C375.164 149.668 373.326 158.357 373.326 158.357Z" fill="#EF7269"/>
<path opacity="0.1" d="M366.047 139.713V141.588L363.364 141.328L358.317 136.103C358.317 136.103 366.125 137.846 366.047 139.713Z" fill="black" stroke="#4C4981" stroke-miterlimit="10"/>
<path opacity="0.1" d="M373.325 158.357L371.445 155.262V142.776C375.164 149.668 373.325 158.357 373.325 158.357Z" fill="black" stroke="#4C4981" stroke-miterlimit="10"/>
<path d="M338.708 181.919C341.857 180.106 341.722 173.99 338.405 168.26C335.089 162.529 329.847 159.355 326.698 161.168C323.548 162.982 323.684 169.098 327 174.828C330.317 180.558 335.558 183.733 338.708 181.919Z" fill="white"/>
<path d="M334.479 170.543C337.797 176.274 341.867 180.102 338.719 181.923C335.57 183.743 326.398 182.833 323.081 177.098C319.763 171.362 322.775 163.442 325.923 161.621C329.072 159.8 331.157 164.798 334.479 170.543Z" fill="#EF7269"/>
<path opacity="0.1" d="M364.017 129.257C364.017 147.569 351.454 165.217 333.097 165.217C324.28 165.217 315.825 161.723 309.591 155.504C303.356 149.286 299.854 140.851 299.854 132.056C299.854 123.261 303.356 114.827 309.591 108.608C315.825 102.389 324.28 98.8953 333.097 98.8953C351.454 98.9135 364.017 110.94 364.017 129.257Z" fill="black"/>
<path d="M333.097 164.325C351.456 164.325 366.339 149.478 366.339 131.164C366.339 112.85 351.456 98.0031 333.097 98.0031C314.737 98.0031 299.854 112.85 299.854 131.164C299.854 149.478 314.737 164.325 333.097 164.325Z" fill="#AE6E79"/>
<path d="M330.176 116.47C334.133 117.922 336.473 122.001 340.024 124.272C345.043 127.459 351.578 126.635 357.309 125.06C360.503 124.19 363.843 123.13 366.987 124.095C367.45 124.299 367.96 124.372 368.461 124.304C369.146 124.109 369.483 123.353 369.707 122.679C373.595 111.117 371.847 98.0214 365.979 87.3243C364.464 84.5658 362.648 81.8984 360.147 79.982C358.176 78.4753 355.858 77.4876 353.521 76.6455C349.252 75.1158 344.836 74.0282 340.343 73.3999C339.55 73.2561 338.739 73.2301 337.938 73.3226C336.839 73.5001 335.853 74.0918 334.872 74.6198C330.67 76.8667 326.01 78.1292 321.246 78.3115C314.858 78.5527 307.557 77.0506 302.633 81.1382C296.701 86.0407 298.179 95.6043 294.333 102.259C291.786 106.661 286.877 109.856 286.069 114.868C285.859 116.4 285.956 117.958 286.356 119.452C288.236 127.163 295.72 133.135 303.696 133.276C304.921 133.369 306.148 133.119 307.237 132.552C307.951 132.066 308.581 131.468 309.104 130.782C314.328 124.609 320.306 112.847 330.176 116.47Z" fill="#444053"/>
<path opacity="0.1" d="M369.707 119.324C369.483 119.998 369.146 120.754 368.461 120.949C367.96 121.017 367.45 120.944 366.987 120.74C363.843 119.775 360.485 120.836 357.313 121.705C351.577 123.28 345.029 124.122 340.028 120.918C336.473 118.642 334.137 114.545 330.176 113.116C320.306 109.474 314.328 121.254 309.09 127.427C308.568 128.114 307.937 128.712 307.224 129.198C306.134 129.764 304.908 130.015 303.683 129.921C295.734 129.78 288.245 123.808 286.343 116.097C286.238 115.642 286.146 115.187 286.078 114.732C286.078 114.772 286.078 114.809 286.055 114.85C285.845 116.382 285.943 117.94 286.343 119.434C288.223 127.145 295.711 133.117 303.683 133.258C304.908 133.351 306.134 133.1 307.224 132.534C307.937 132.048 308.568 131.45 309.09 130.763C314.328 124.591 320.306 112.829 330.176 116.452C334.137 117.904 336.473 121.983 340.028 124.254C345.048 127.441 351.577 126.617 357.313 125.042C360.508 124.172 363.843 123.112 366.987 124.077C367.45 124.281 367.96 124.353 368.461 124.286C369.146 124.09 369.483 123.335 369.707 122.661C371.275 117.93 371.968 112.954 371.751 107.976C371.617 111.837 370.928 115.659 369.707 119.324Z" fill="black"/>
</g>
<defs>
<clipPath id="clip0">
<rect width="522.025" height="281" fill="white"/>
</clipPath>
</defs>
</svg>
